# xmcd CD database file
#
# Track frame offsets:
#	150
#	20807
#	32615
#	55180
#	65302
#	78762
#	93337
#	107885
#	132457
#	145842
#	162557
#	179277
#	193760
#	206010
#	224392
#	241070
#	247182
#	261612
#	274220
#	289755
#	311327
#
# Disc length: 4322 seconds
#
# Revision: 1
# Processed by: cddbd v1.5.1PL2 Copyright (c) Steve Scherf et al.
# Submitted via: CDex 1.51
#
DISCID=4210e015
DTITLE=The Many Shades of Casual - Casual
DYEAR=1996
DGENRE=House
TTITLE0=Take Me Back - GU featuring CEI-BEI
TTITLE1=S.J.U. - GU
TTITLE2=Stay Around - Terence FM
TTITLE3=Conduction - Johnny Fiasco
TTITLE4=Message of Love - DJ Sneak
TTITLE5=If You Got To Believe In Something - Gemini
TTITLE6=Zapped - Johnny Fiasco
TTITLE7=Day By Day(Green Velvet Mix) - DAJAE
TTITLE8=Touch Me - Mark Grant
TTITLE9=Get Up Off Me - DAJAE
TTITLE10=Horny - Cajmere
TTITLE11=U&I - Big ED
TTITLE12=Sounds From The Pipe - DJ Sneak
TTITLE13=Flash Back - Boo Williams
TTITLE14=People Everyday - Braxton Holmes Feat. John Redman
TTITLE15=Action 78 - DJ78
TTITLE16=Feelin'kind High - Terence FM
TTITLE17=Disco Erotica - DJ Sneak
TTITLE18=Day By Day -DAJAE
TTITLE19=Dream States - Derrick Carter
TTITLE20=Do Me A Favor - Big Ed Featuring Dana
EXTD=YEAR: 1996
EXTT0=
EXTT1=
EXTT2=
EXTT3=
EXTT4=
EXTT5=
EXTT6=
EXTT7=
EXTT8=
EXTT9=
EXTT10=
EXTT11=
EXTT12=
EXTT13=
EXTT14=
EXTT15=
EXTT16=
EXTT17=
EXTT18=
EXTT19=
EXTT20=
PLAYORDER=
